<?xml version="1.0" standalone="no"?><!DOCTYPE svg PUBLIC "-//W3C//DTD SVG 1.1//EN" "http://www.w3.org/Graphics/SVG/1.1/DTD/svg11.dtd"><svg t="1682398017422" class="icon" viewBox="0 0 1024 1024" version="1.1" xmlns="http://www.w3.org/2000/svg" p-id="25972" xmlns:xlink="http://www.w3.org/1999/xlink" width="200" height="200"><path d="M512 64a448 448 0 1 0 0 896A448 448 0 0 0 512 64z m217.344 609.92a39.04 39.04 0 0 1 0 55.488 39.04 39.04 0 0 1-55.488 0l-159.36-159.36-159.36 159.36a39.04 39.04 0 0 1-55.552 0 39.04 39.04 0 0 1 0-55.488l159.36-159.36-159.36-159.36a39.04 39.04 0 0 1 0-55.552 39.04 39.04 0 0 1 55.552 0l159.36 159.36 159.36-159.36a39.04 39.04 0 0 1 55.488 0 39.04 39.04 0 0 1 0 55.552l-159.36 159.36 159.36 159.36z" fill="#d81e06" p-id="25973" data-spm-anchor-id="a313x.7781069.0.i11" class=""></path></svg>